<svg xmlns="http://www.w3.org/2000/svg" xmlns:xlink="http://www.w3.org/1999/xlink" width="25.56" height="32" viewBox="0 0 25.56 32">
  <defs>
    <clipPath id="clip-path">
      <rect id="Прямоугольник_480" data-name="Прямоугольник 480" width="25.56" height="32" fill="#0066b2"/>
    </clipPath>
  </defs>
  <g id="Сгруппировать_12952" data-name="Сгруппировать 12952" transform="translate(-390 -4858.465)">
    <path id="Контур_1294" data-name="Контур 1294" d="M-17066.627,15988.239h0v26.061l2.318,1.493,21.168-.36c.051,0,0-19.52,0-19.52s-8.6.051-8.6,0,.516-10.249.516-10.249-14.32.361-14.371.361" transform="translate(17457.602 -11126.348)" fill="#e0f2ff"/>
    <g id="Сгруппировать_12489" data-name="Сгруппировать 12489" transform="translate(390 4858.465)">
      <g id="Сгруппировать_12488" data-name="Сгруппировать 12488" clip-path="url(#clip-path)">
        <path id="Контур_1290" data-name="Контур 1290" d="M3.465,32h18.63a3.448,3.448,0,0,0,3.465-3.42V10.906a1.079,1.079,0,0,0-.23-.645L17.135.366A1.032,1.032,0,0,0,16.36,0H3.465A3.448,3.448,0,0,0,0,3.421V28.58A3.448,3.448,0,0,0,3.465,32Zm13.9-28.19L22.4,9.9h-5.04Zm-15.35-.39a1.428,1.428,0,0,1,1.445-1.4H15.345V10.9a1.01,1.01,0,0,0,1.01,1.01h7.185V28.576a1.428,1.428,0,0,1-1.445,1.4H3.464a1.425,1.425,0,0,1-1.445-1.4V3.422Z" transform="translate(0 -0.001)" fill="#0066b2"/>
        <path id="Контур_1291" data-name="Контур 1291" d="M82.5,185.71h8.994a1.01,1.01,0,1,0,0-2.02H82.5a1.01,1.01,0,1,0,0,2.02" transform="translate(-74.212 -167.289)" fill="#0066b2"/>
        <path id="Контур_1292" data-name="Контур 1292" d="M82.5,231.68h8.994a1.01,1.01,0,1,0,0-2.02H82.5a1.01,1.01,0,1,0,0,2.02Z" transform="translate(-74.212 -209.155)" fill="#0066b2"/>
        <path id="Контур_1293" data-name="Контур 1293" d="M82.5,277.71h4.495a1.01,1.01,0,0,0,0-2.02H82.5a1.01,1.01,0,0,0,0,2.02" transform="translate(-74.212 -251.075)" fill="#0066b2"/>
      </g>
    </g>
  </g>
</svg>
