<svg xmlns="http://www.w3.org/2000/svg" xmlns:xlink="http://www.w3.org/1999/xlink" width="28.5" height="35.68" viewBox="0 0 28.5 35.68">
  <defs>
    <clipPath id="clip-path">
      <rect id="Прямоугольник_480" data-name="Прямоугольник 480" width="28.5" height="35.68" fill="#ececec"/>
    </clipPath>
  </defs>
  <g id="Сгруппировать_12972" data-name="Сгруппировать 12972" transform="translate(-656.5 -467)">
    <g id="Сгруппировать_12546" data-name="Сгруппировать 12546" transform="translate(656.5 467)">
      <g id="Сгруппировать_12489" data-name="Сгруппировать 12489">
        <g id="Сгруппировать_12488" data-name="Сгруппировать 12488" clip-path="url(#clip-path)">
          <path id="Контур_1290" data-name="Контур 1290" d="M3.864,35.681H24.636A3.844,3.844,0,0,0,28.5,31.868V12.16a1.2,1.2,0,0,0-.256-.719L19.106.408A1.15,1.15,0,0,0,18.242,0H3.864A3.844,3.844,0,0,0,0,3.814V31.868a3.844,3.844,0,0,0,3.864,3.813Zm15.5-31.432,5.62,6.785h-5.62ZM2.247,3.814A1.592,1.592,0,0,1,3.858,2.248H17.11v9.906a1.127,1.127,0,0,0,1.126,1.126h8.011V31.862a1.592,1.592,0,0,1-1.611,1.566H3.863a1.588,1.588,0,0,1-1.611-1.566V3.815Z" transform="translate(0 -0.001)" fill="#b2b2b2"/>
        </g>
      </g>
    </g>
    <path id="Контур_1327" data-name="Контур 1327" d="M2.827-12.6H.72v9.106H2.151V-6.915h.676c1.431,0,2.133-.794,2.133-2.251v-1.184C4.961-11.806,4.258-12.6,2.827-12.6Zm0,1.3c.455,0,.7.208.7.859v1.366c0,.65-.247.859-.7.859H2.151V-11.3ZM5.689-3.494H7.953c1.431,0,2.133-.794,2.133-2.251v-4.605c0-1.457-.7-2.251-2.133-2.251H5.689ZM7.927-11.3c.455,0,.729.234.729.885v4.735c0,.65-.273.885-.729.885H7.12v-6.5Zm4.5,0h2.355v-1.3H11v9.106h1.431v-3.76h1.847v-1.3H12.428Z" transform="translate(664.662 499.418)" fill="#b2b2b2"/>
  </g>
</svg>
