<svg id="Сгруппировать_12755" data-name="Сгруппировать 12755" xmlns="http://www.w3.org/2000/svg" xmlns:xlink="http://www.w3.org/1999/xlink" width="20" height="20.024" viewBox="0 0 20 20.024">
  <defs>
    <clipPath id="clip-path">
      <rect id="Прямоугольник_465" data-name="Прямоугольник 465" width="20" height="20.024" fill="#fff"/>
    </clipPath>
  </defs>
  <g id="Сгруппировать_12459" data-name="Сгруппировать 12459" clip-path="url(#clip-path)">
    <path id="Контур_1272" data-name="Контур 1272" d="M8.2,3.359a2.178,2.178,0,0,1,0,2.988L6.8,7.753a12.755,12.755,0,0,0,5.45,5.537L13.653,11.8a2.177,2.177,0,0,1,2.988,0l2.285,2.285a2.177,2.177,0,0,1,0,2.988l-2.285,2.2C12.335,23.662-3.574,7.666.733,3.359l2.285-2.2a2.022,2.022,0,0,1,2.988,0l2.2,2.2Zm3.34-2.2c-.7-.176-.44-1.318.352-1.143A11.4,11.4,0,0,1,19.981,8.1a.6.6,0,0,1-1.143.352,10.213,10.213,0,0,0-7.3-7.3Zm-.7,2.725c-.7-.176-.44-1.318.352-1.143A8.59,8.59,0,0,1,17.257,8.9c.264.7-.879,1.055-1.143.264a7.291,7.291,0,0,0-5.273-5.274ZM7.412,4.15l-2.285-2.2a.956.956,0,0,0-1.318,0l-2.2,2.2C-1.641,7.4,12.6,21.641,15.85,18.388l2.2-2.2a.961.961,0,0,0,.088-1.318l-2.285-2.2a.824.824,0,0,0-1.318,0l-1.758,1.67a.583.583,0,0,1-.615.176A14.1,14.1,0,0,1,5.567,7.929a.544.544,0,0,1,.088-.7l1.758-1.67a1.068,1.068,0,0,0,0-1.406Z" transform="translate(-0.001 0)" fill="#fff"/>
  </g>
</svg>
