<svg xmlns="http://www.w3.org/2000/svg" width="18.224" height="18.213" viewBox="0 0 18.224 18.213">
  <path id="Контур_1471" data-name="Контур 1471" d="M150.282,72.238a.746.746,0,0,1,.03,1.051l-4.878,5.154a1.865,1.865,0,0,1-1.354.582h-.063a1.865,1.865,0,0,1-1.369-.649l-2.1-2.446h0a.746.746,0,1,1,1.119-.973l2.1,2.446h0a.375.375,0,0,0,.556.015l4.885-5.154a.746.746,0,0,1,1.074-.026Zm4.27.8v4.788a6.712,6.712,0,0,1-6.712,6.712h-4.8a6.713,6.713,0,0,1-6.712-6.712V73.036a6.713,6.713,0,0,1,6.712-6.712h4.788a6.713,6.713,0,0,1,6.712,6.712Zm-1.492,0h0a5.221,5.221,0,0,0-5.221-5.221h-4.8a5.221,5.221,0,0,0-5.221,5.221v4.788a5.221,5.221,0,0,0,5.221,5.221h4.788a5.221,5.221,0,0,0,5.221-5.221Z" transform="translate(-136.328 -66.324)" fill="#0066b2"/>
</svg>
