<svg id="Сгруппировать_12580" data-name="Сгруппировать 12580" xmlns="http://www.w3.org/2000/svg" xmlns:xlink="http://www.w3.org/1999/xlink" width="68.11" height="37.672" viewBox="0 0 68.11 37.672">
  <defs>
    <clipPath id="clip-path">
      <rect id="Прямоугольник_557" data-name="Прямоугольник 557" width="68.11" height="37.672" fill="#d5d5d5"/>
    </clipPath>
  </defs>
  <g id="Сгруппировать_12579" data-name="Сгруппировать 12579" clip-path="url(#clip-path)">
    <path id="Контур_1345" data-name="Контур 1345" d="M22.6,0H63.386A4.735,4.735,0,0,1,68.11,4.724V32.949a4.673,4.673,0,0,1-1.387,3.336l-.112.075c-.038.038-.075.112-.15.15a4.729,4.729,0,0,1-3.074,1.162H22.6a4.832,4.832,0,0,1-3.336-1.387,4.672,4.672,0,0,1-1.387-3.336V4.723A4.735,4.735,0,0,1,22.6,0ZM11.62,26.24a1.574,1.574,0,1,1,0,3.149H9.409a1.574,1.574,0,0,1,0-3.149Zm0-17.956a1.556,1.556,0,1,1,0,3.111H1.574a1.556,1.556,0,1,1,0-3.111Zm0,8.959a1.574,1.574,0,1,1,0,3.149H5.51a1.574,1.574,0,1,1,0-3.149ZM62.3,34.523,49.068,22.715,43.82,25.864a1.623,1.623,0,0,1-1.649.038l-5.248-3.149L23.991,34.523H62.3ZM51.879,21.029,64.961,32.686V13.195L51.879,21.029ZM21.029,32.986l13.082-11.92L21.029,13.194V32.986Zm0-23.428L43,22.715,64.962,9.558V4.723a1.69,1.69,0,0,0-.45-1.125,1.526,1.526,0,0,0-1.125-.45H22.6a1.526,1.526,0,0,0-1.125.45,1.689,1.689,0,0,0-.45,1.125V9.558Z" fill="#d5d5d5"/>
  </g>
</svg>
