<svg id="Сгруппировать_28" data-name="Сгруппировать 28" xmlns="http://www.w3.org/2000/svg" xmlns:xlink="http://www.w3.org/1999/xlink" width="15.084" height="11.378" viewBox="0 0 15.084 11.378">
  <defs>
    <clipPath id="clip-path">
      <rect id="Прямоугольник_147" data-name="Прямоугольник 147" width="15.084" height="11.378" fill="#fff"/>
    </clipPath>
  </defs>
  <g id="Сгруппировать_27" data-name="Сгруппировать 27" clip-path="url(#clip-path)">
    <path id="Контур_81" data-name="Контур 81" d="M.654,11.378H14.43a.642.642,0,0,0,.654-.654V.654A.642.642,0,0,0,14.43,0H.654A.642.642,0,0,0,0,.654v10.07A.656.656,0,0,0,.654,11.378Zm.654-10.07H13.776v.545L7.542,5.34,1.308,1.853Zm0,2.049L7.237,6.67a.652.652,0,0,0,.632,0L13.8,3.357V10.07H1.308Z" fill="#fff"/>
  </g>
</svg>
