<svg xmlns="http://www.w3.org/2000/svg" xmlns:xlink="http://www.w3.org/1999/xlink" width="183.508" height="22.659" viewBox="0 0 183.508 22.659">
  <defs>
    <clipPath id="clip-path">
      <rect id="Прямоугольник_1252" data-name="Прямоугольник 1252" width="183.508" height="22.659" fill="#0066b2"/>
    </clipPath>
  </defs>
  <g id="Сгруппировать_12955" data-name="Сгруппировать 12955" clip-path="url(#clip-path)">
    <path id="Контур_1462" data-name="Контур 1462" d="M330.7,0h5.226c-.094,1.446.735,1.548,1.9,1.573a31.744,31.744,0,0,1,5.86.552c4.009.848,5.73,2.784,6.106,6.867a18.518,18.518,0,0,1-.274,5.186,6.235,6.235,0,0,1-5.328,5.085,66.541,66.541,0,0,1-6.673.692c-.736.066-1.509-.05-1.481,1.1.005.223-.515.644-.807.657-1.5.067-3.008.031-4.635.031.259-1.888-.923-1.722-2.126-1.821a42.965,42.965,0,0,1-6.636-.895c-3.263-.793-4.725-3.225-5.058-6.436-.009-.091-.01-.183-.015-.275-.416-7.429,2.217-10.353,9.675-10.728.824-.042,1.65-.037,2.475-.052,1.45-.027,1.45-.026,1.792-1.541m-.19,10.86c0-1.283.048-2.568-.034-3.845-.02-.317-.475-.884-.7-.868a35.35,35.35,0,0,0-5.143.607,2.594,2.594,0,0,0-1.989,2.529,15.9,15.9,0,0,0-.012,2.73,3,3,0,0,0,2.8,3.052c1.344.226,2.729.208,4.094.316.818.065,1.01-.365.99-1.085-.033-1.144-.009-2.29-.007-3.435m5.637,4.672c1.828-.188,3.55-.274,5.236-.565a2.808,2.808,0,0,0,2.568-2.647c.117-1.877.58-3.9-1.33-5.287a1.236,1.236,0,0,0-.477-.262c-1.949-.308-3.9-.6-6-.916Z" transform="translate(-229.584 0)" fill="#0066b2"/>
    <path id="Контур_1463" data-name="Контур 1463" d="M466.421.852c1.946.236,4.235.389,6.474.813,4.223.8,6.869,3.257,7.448,7.659a16.75,16.75,0,0,1-.53,7.74,7.989,7.989,0,0,1-6.063,5.268,32.113,32.113,0,0,1-15.111.084c-4.686-1.091-6.917-3.873-7.155-8.642a22.058,22.058,0,0,1,.152-4.8c.758-4.409,3.579-6.871,8.553-7.575,1.945-.275,3.917-.354,6.231-.553m-.8,17.537c.009-.092.019-.185.028-.277a25.6,25.6,0,0,0,3.151-.02c3.883-.485,5.624-2.474,5.486-6.164-.017-.454-.138-.9-.177-1.358a4.324,4.324,0,0,0-3.356-4.057,17.66,17.66,0,0,0-9.619-.021,4.061,4.061,0,0,0-3.127,3.315,16.414,16.414,0,0,0-.056,4.209,3.957,3.957,0,0,0,3.1,3.615c1.488.386,3.043.515,4.568.757" transform="translate(-327.233 -0.618)" fill="#0066b2"/>
    <path id="Контур_1464" data-name="Контур 1464" d="M571.379,25c0-2.992,0-5.962,0-8.932,0-3.344.005-6.688-.012-10.032,0-.764.045-1.324,1.072-1.3,5.72.114,11.442.168,17.163.281A10.406,10.406,0,0,1,591.9,5.4c4.526,1.138,6.27,3.942,5.674,9.464-.491,4.545-3.023,6.493-8.446,6.768-3.427.174-6.864.205-10.3.207-1.062,0-1.453.264-1.419,1.377.06,1.964,0,1.968-2.024,1.966q-1.786,0-3.572-.021a2.073,2.073,0,0,1-.434-.16M583.394,9.56c0,.031,0,.063-.005.094-1.6,0-3.2,0-4.8,0-.664,0-1.164.174-1.154,1,.023,1.738-.032,3.48.054,5.214.017.339.53.937.812.936,3.517-.017,7.041-.006,10.546-.253,1.964-.139,2.649-1.238,2.652-3.32,0-1.942-.715-2.945-2.639-3.231-1.8-.269-3.64-.3-5.462-.44" transform="translate(-414.175 -3.432)" fill="#0066b2"/>
    <path id="Контур_1465" data-name="Контур 1465" d="M99.694,25.171c1.152-2.554,2.193-4.877,3.247-7.195,1.477-3.249,3.019-6.468,4.425-9.747a5.208,5.208,0,0,1,5.454-3.5c2.012.074,4.03.016,6.044.015a4.669,4.669,0,0,1,4.7,2.89c1.918,4.253,3.9,8.475,5.859,12.711.7,1.524,1.4,3.05,2.212,4.809-2.07,0-3.931.084-5.772-.066-.407-.033-.911-.844-1.084-1.387a2.344,2.344,0,0,0-2.711-1.817c-4.394.11-8.793.071-13.189.016-1.1-.014-1.861.212-2.152,1.371a2.285,2.285,0,0,1-2.88,1.939,32.368,32.368,0,0,0-4.149-.035m9.842-8.132H121.8c-1.117-2.375-2.09-4.576-3.207-6.7a2.191,2.191,0,0,0-1.519-.758,9.663,9.663,0,0,0-2.872.012,2.526,2.526,0,0,0-1.658.991c-1.055,2.009-1.936,4.108-3.011,6.458" transform="translate(-72.267 -3.421)" fill="#0066b2"/>
    <path id="Контур_1466" data-name="Контур 1466" d="M.178,5.01H6.134c0,2.205.059,4.348-.023,6.484-.047,1.231.307,1.7,1.612,1.672,3.435-.081,6.874-.055,10.311-.015.952.011,1.29-.293,1.254-1.265-.068-1.831-.026-3.666-.017-5.5,0-.444.054-.888.087-1.382h5.968c.026.5.07.937.07,1.378.007,5.867-.02,11.735.034,17.6.01,1.081-.278,1.49-1.381,1.414a28.146,28.146,0,0,0-3.573,0c-1,.059-1.275-.345-1.23-1.286.067-1.418-.039-2.845.043-4.261.061-1.056-.349-1.323-1.347-1.309q-5.224.074-10.449,0c-.994-.012-1.414.3-1.376,1.33.056,1.51-.016,3.025.01,4.537.012.71-.271.99-.972.978-1.42-.024-2.845.045-4.26-.049a1.25,1.25,0,0,1-.875-.844C-.017,18.121.006,11.75.022,5.38c0-.082.066-.163.155-.369" transform="translate(0 -3.627)" fill="#0066b2"/>
    <path id="Контур_1467" data-name="Контур 1467" d="M203.274,4.715c2.047,0,3.822-.051,5.588.043.355.018.813.52,1,.907q1.424,2.973,2.715,6.009a2.476,2.476,0,0,0,2.573,1.64c2.613-.033,5.227.018,7.837-.072a1.8,1.8,0,0,0,1.276-.877c1.039-2.14,1.985-4.326,2.921-6.515a1.572,1.572,0,0,1,1.73-1.168c1.588.092,3.186.025,5.019.025-.88,1.911-1.681,3.639-2.473,5.371-1.714,3.747-3.522,7.456-5.1,11.26a5.453,5.453,0,0,1-5.555,3.8c-2.475-.024-4.951.028-7.426-.02a1.417,1.417,0,0,1-1.056-.6c-.661-1.293-1.209-2.643-1.886-4.169,2.87,0,5.555-.006,8.241,0a2.569,2.569,0,0,0,2.857-2.277c-1.123,0-2.152,0-3.181,0-1.925,0-3.853-.062-5.775.009a4.4,4.4,0,0,1-4.434-2.839c-1.6-3.395-3.152-6.81-4.87-10.532" transform="translate(-147.35 -3.391)" fill="#0066b2"/>
  </g>
</svg>
