<svg id="Сгруппировать_12235" data-name="Сгруппировать 12235" xmlns="http://www.w3.org/2000/svg" width="68.025" height="31.396" viewBox="0 0 68.025 31.396">
  <g id="Сгруппировать_1" data-name="Сгруппировать 1" transform="translate(0 0.328)">
    <path id="Контур_1" data-name="Контур 1" d="M1587.194-2641.952a14.921,14.921,0,0,1,5.729,5.534,15.318,15.318,0,0,1,2.113,7.991,15.315,15.315,0,0,1-2.113,7.992,15.034,15.034,0,0,1-5.751,5.555,16.176,16.176,0,0,1-7.951,2.009,16.26,16.26,0,0,1-7.995-2.009,15.183,15.183,0,0,1-5.773-5.555,15.191,15.191,0,0,1-2.135-7.992,15.194,15.194,0,0,1,2.135-7.991,15.026,15.026,0,0,1,5.773-5.534,16.4,16.4,0,0,1,7.995-1.987A16.284,16.284,0,0,1,1587.194-2641.952Zm-12.461,8.59a7.3,7.3,0,0,0-1.568,4.936,7.23,7.23,0,0,0,1.568,4.893,5.606,5.606,0,0,0,4.488,1.816,5.553,5.553,0,0,0,4.444-1.816,7.23,7.23,0,0,0,1.568-4.893,7.3,7.3,0,0,0-1.568-4.936,5.556,5.556,0,0,0-4.444-1.816A5.609,5.609,0,0,0,1574.733-2633.363Z" transform="translate(-1563.318 2643.939)"/>
    <path id="Контур_2" data-name="Контур 2" d="M1826.752-2616.463a13.983,13.983,0,0,1-5.6,5.446,17.41,17.41,0,0,1-8.474,1.986h-12.853v-30.24h12.853a17.882,17.882,0,0,1,8.474,1.922,13.649,13.649,0,0,1,5.6,5.339,15.343,15.343,0,0,1,1.96,7.774A15.489,15.489,0,0,1,1826.752-2616.463Zm-9.76-2.776a6.426,6.426,0,0,0,1.917-5,6.428,6.428,0,0,0-1.917-5,7.4,7.4,0,0,0-5.185-1.751H1809.5v13.5h2.309A7.391,7.391,0,0,0,1816.993-2619.24Z" transform="translate(-1773.336 2639.795)"/>
  </g>
  <g id="Сгруппировать_2" data-name="Сгруппировать 2" transform="translate(57.628 0)">
    <path id="Контур_3" data-name="Контур 3" d="M2087.889-2646.205a4.939,4.939,0,0,1,1.878,1.85,5.2,5.2,0,0,1,.693,2.671,5.2,5.2,0,0,1-.693,2.671,4.971,4.971,0,0,1-1.885,1.856,5.218,5.218,0,0,1-2.606.671,5.246,5.246,0,0,1-2.621-.671,5.021,5.021,0,0,1-1.892-1.856,5.153,5.153,0,0,1-.7-2.671,5.154,5.154,0,0,1,.7-2.671,4.973,4.973,0,0,1,1.892-1.85,5.3,5.3,0,0,1,2.621-.664A5.258,5.258,0,0,1,2087.889-2646.205Zm-4.085,2.871a2.473,2.473,0,0,0-.514,1.65,2.449,2.449,0,0,0,.514,1.635,1.822,1.822,0,0,0,1.471.607,1.8,1.8,0,0,0,1.457-.607,2.449,2.449,0,0,0,.514-1.635,2.473,2.473,0,0,0-.514-1.65,1.8,1.8,0,0,0-1.457-.607A1.823,1.823,0,0,0,2083.8-2643.334Z" transform="translate(-2080.062 2646.869)"/>
  </g>
  <path id="Контур_4" data-name="Контур 4" d="M2094.417-2535.586h-2.949l-3.122-4.729v4.729H2085.4v-9.405h2.949l3.122,4.809v-4.809h2.949Z" transform="translate(-2027.172 2556.095)"/>
  <path id="Контур_5" data-name="Контур 5" d="M2088.346-2445.587v1.169h3.831v2.219h-3.831v1.329h6.071v2.352h-9.02v-9.406h9.02v2.338Z" transform="translate(-2027.172 2469.6)"/>
</svg>
