<svg id="Сгруппировать_12963" data-name="Сгруппировать 12963" xmlns="http://www.w3.org/2000/svg" xmlns:xlink="http://www.w3.org/1999/xlink" width="17.919" height="16.388" viewBox="0 0 17.919 16.388">
  <defs>
    <clipPath id="clip-path">
      <rect id="Прямоугольник_488" data-name="Прямоугольник 488" width="17.919" height="16.388" fill="#0066b2"/>
    </clipPath>
  </defs>
  <g id="Сгруппировать_12491" data-name="Сгруппировать 12491" clip-path="url(#clip-path)">
    <path id="Контур_1295" data-name="Контур 1295" d="M17.919,5.029a5.086,5.086,0,0,1-1.465,3.564l-5.117,5.095-.918-.918,1.4-1.4L12.911,10.3l2.624-2.624a3.711,3.711,0,1,0-5.248-5.248L4.843,7.806l-2.777,2.8a2.628,2.628,0,1,0,3.717,3.717l5.576-5.576a1.557,1.557,0,0,0,.459-1.093,1.5,1.5,0,0,0-.459-1.093,1.523,1.523,0,0,0-1.071-.437,1.615,1.615,0,0,0-1.093.437L6.7,9.053l-.918-.918L8.254,5.663a2.843,2.843,0,0,1,4.854,2.012,2.884,2.884,0,0,1-.831,2.012L6.7,15.241A3.935,3.935,0,0,1,1.148,9.665l8.2-8.2a5.068,5.068,0,0,1,7.128,0,5.161,5.161,0,0,1,1.443,3.564Z" transform="translate(0)" fill="#0066b2"/>
  </g>
</svg>
