<svg xmlns="http://www.w3.org/2000/svg" width="116.54" height="126.414" viewBox="0 0 116.54 126.414">
  <path id="Контур_9" data-name="Контур 9" d="M97.526,93.9l18.141-29.555a5.911,5.911,0,0,0,0-6.184L107.22,44.4a5.913,5.913,0,0,0-5.039-2.82H80.933L91.314,24.668a5.911,5.911,0,0,0,0-6.184L81.7,2.818A5.909,5.909,0,0,0,76.662,0H40.183a5.913,5.913,0,0,0-5.039,2.818L25.226,18.979a5.907,5.907,0,0,0,0,6.182L35.3,41.583H14.657A5.906,5.906,0,0,0,9.622,44.4L.873,58.658a5.911,5.911,0,0,0,0,6.184l20.18,32.883a5.916,5.916,0,0,0,5.039,2.818H41.437a5.913,5.913,0,0,0,5.037-2.818L58.12,78.752l.069.116L85.623,123.7a5.636,5.636,0,0,0,4.8,2.7l15.06.019L72.54,72.564A5.912,5.912,0,0,0,67.5,69.737H48.732a5.912,5.912,0,0,0-5.037,2.818l-9.93,16.181L14.329,57.069h19.35A5.9,5.9,0,0,0,38.8,54.116l9.111-15.782a5.909,5.909,0,0,0-.079-6.047l-10.31-16.8h41.2L68.565,32.032a5.917,5.917,0,0,0-.081,6.049L77.74,54.116a5.914,5.914,0,0,0,5.121,2.953h19.046L88.413,79.057Z" transform="translate(0)" fill="#122d59"/>
</svg>
